<svg width="209" height="47" viewBox="0 0 209 47" fill="none" xmlns="http://www.w3.org/2000/svg">
<path d="M0.238281 43.5977L4.13477 43.1875L19.3398 0.941406H23.6172L38.5586 43.1875L42.5137 43.5977V46H28.3633V43.5977L33.8711 43.1875L30.5312 33.2852H11.4004L8.00195 43.1875L13.4219 43.5977V46H0.238281V43.5977ZM29.5352 30.3848L22.7383 10.2285L20.9512 4.19336L19.1934 10.4922L12.3965 30.3848H29.5352ZM45.1797 43.5977L50.3652 43.2168V4.25195L45.502 3.66602V1.41016H52.6211C54.2227 1.41016 55.7852 1.33203 57.3086 1.17578C58.832 1.01953 60.3164 0.941406 61.7617 0.941406C64.6914 0.941406 67.1621 1.19531 69.1738 1.70312C71.2051 2.19141 72.8457 2.92383 74.0957 3.90039C75.3652 4.87695 76.2832 6.10742 76.8496 7.5918C77.416 9.05664 77.6992 10.7559 77.6992 12.6895C77.6992 14.1348 77.4746 15.5312 77.0254 16.8789C76.5762 18.2266 75.9316 19.4668 75.0918 20.5996C74.2715 21.7324 73.2754 22.7188 72.1035 23.5586C70.9316 24.3984 69.623 25.0234 68.1777 25.4336C68.9004 25.9609 69.6426 26.752 70.4043 27.8066C71.1855 28.8418 71.9668 29.9941 72.748 31.2637C73.5293 32.5332 74.291 33.8516 75.0332 35.2188C75.7949 36.5664 76.5273 37.8066 77.2305 38.9395C77.9336 40.0723 78.5879 41.0293 79.1934 41.8105C79.7988 42.5918 80.3457 43.041 80.834 43.1582L83.3828 43.7441V46H77.0547C76.6836 46 76.2637 45.7559 75.7949 45.2676C75.3457 44.7598 74.8574 44.0957 74.3301 43.2754C73.8223 42.4551 73.2852 41.5078 72.7188 40.4336C72.1523 39.3594 71.5664 38.2461 70.9609 37.0938C70.3555 35.9414 69.7402 34.7891 69.1152 33.6367C68.5098 32.4648 67.9043 31.3906 67.2988 30.4141C66.6934 29.418 66.0879 28.5488 65.4824 27.8066C64.877 27.0645 64.291 26.5273 63.7246 26.1953C63.4512 26.1953 63.0605 26.1953 62.5527 26.1953C62.0645 26.1953 61.5176 26.1953 60.9121 26.1953C60.3066 26.1953 59.6816 26.1953 59.0371 26.1953C58.3926 26.1758 57.7773 26.166 57.1914 26.166C56.6055 26.1465 56.0879 26.1367 55.6387 26.1367C55.1895 26.1367 54.8672 26.127 54.6719 26.1074V43.2168L60.9707 43.5977V46H45.1797V43.5977ZM54.6719 23.2363C55.2773 23.2754 56 23.3047 56.8398 23.3242C57.6797 23.3242 58.5195 23.334 59.3594 23.3535C60.1992 23.3535 60.9805 23.3535 61.7031 23.3535C62.4258 23.3535 62.9824 23.3535 63.373 23.3535C64.7207 23.3535 65.9805 23.1484 67.1523 22.7383C68.3438 22.3086 69.3691 21.6738 70.2285 20.834C71.0879 19.9746 71.7617 18.9102 72.25 17.6406C72.7578 16.3516 73.0117 14.8379 73.0117 13.0996C73.0117 11.7324 72.8262 10.4727 72.4551 9.32031C72.1035 8.16797 71.4883 7.18164 70.6094 6.36133C69.7305 5.52148 68.5391 4.87695 67.0352 4.42773C65.5508 3.95898 63.6758 3.72461 61.4102 3.72461C59.8281 3.72461 58.5098 3.79297 57.4551 3.92969C56.4004 4.04688 55.4727 4.10547 54.6719 4.10547V23.2363ZM86.5176 24.4961C86.5176 22.0742 86.791 19.8086 87.3379 17.6992C87.8848 15.5898 88.6465 13.666 89.623 11.9277C90.6191 10.1895 91.8008 8.63672 93.168 7.26953C94.5352 5.90234 96.0488 4.75 97.709 3.8125C99.3691 2.875 101.137 2.16211 103.012 1.67383C104.906 1.18555 106.859 0.941406 108.871 0.941406C110.414 0.941406 111.879 1.01953 113.266 1.17578C114.672 1.3125 115.951 1.48828 117.104 1.70312C118.275 1.89844 119.301 2.10352 120.18 2.31836C121.078 2.5332 121.781 2.69922 122.289 2.81641L121.85 12.6309H119.184L117.982 5.6875C117.748 5.53125 117.377 5.33594 116.869 5.10156C116.381 4.86719 115.736 4.64258 114.936 4.42773C114.154 4.19336 113.217 3.99805 112.123 3.8418C111.029 3.68555 109.76 3.60742 108.314 3.60742C105.932 3.60742 103.715 4.02734 101.664 4.86719C99.6133 5.6875 97.8262 6.91797 96.3027 8.55859C94.7988 10.1797 93.6074 12.2012 92.7285 14.623C91.8691 17.0449 91.4395 19.8477 91.4395 23.0312C91.4395 24.8086 91.5762 26.5664 91.8496 28.3047C92.1426 30.0234 92.5723 31.6641 93.1387 33.2266C93.7246 34.7695 94.457 36.2051 95.3359 37.5332C96.2148 38.8418 97.2402 39.9746 98.4121 40.9316C99.6035 41.8887 100.941 42.6406 102.426 43.1875C103.91 43.7148 105.561 43.9785 107.377 43.9785C108.51 43.9785 109.613 43.9102 110.688 43.7734C111.762 43.6172 112.768 43.4121 113.705 43.1582C114.662 42.8848 115.531 42.582 116.312 42.25C117.113 41.8984 117.797 41.5176 118.363 41.1074V27.1035L109.574 26.5762V23.5879H126.508V26.5762L122.699 27.1621V43.5977C121.898 43.6367 121.01 43.8223 120.033 44.1543C119.057 44.4668 117.934 44.8184 116.664 45.209C115.414 45.5801 113.998 45.9121 112.416 46.2051C110.834 46.5176 109.037 46.6738 107.025 46.6738C103.803 46.6738 100.922 46.1172 98.3828 45.0039C95.8438 43.8711 93.6953 42.3184 91.9375 40.3457C90.1797 38.3535 88.832 36.0098 87.8945 33.3145C86.9766 30.5996 86.5176 27.6602 86.5176 24.4961ZM130.844 43.5977L136.029 43.1582V4.39844L130.961 3.7832V1.41016H160.375L161.225 10.082H158.734L157.182 4.19336L140.336 3.98828V21.7422L151.908 21.5957L152.611 16.5273H155.307V29.6523H152.611L151.908 24.4961L140.336 24.3496V43.2168L159.496 42.7188L162.455 35.1895L164.975 36.0391L163.07 46H130.844V43.5977ZM165.824 43.5977L169.721 43.1875L184.926 0.941406H189.203L204.145 43.1875L208.1 43.5977V46H193.949V43.5977L199.457 43.1875L196.117 33.2852H176.986L173.588 43.1875L179.008 43.5977V46H165.824V43.5977ZM195.121 30.3848L188.324 10.2285L186.537 4.19336L184.779 10.4922L177.982 30.3848H195.121Z" fill="#0C100F"/>
</svg>
