<svg width="200" height="200" viewBox="0 0 200 200" fill="none" xmlns="http://www.w3.org/2000/svg">
<g id="free-icon-font-behance-6423299" clip-path="url(#clip0_210_8501)">
<g id="Group">
<path id="Vector" d="M79.825 79.775C79.825 71.875 73.7084 70 66.9167 70H49.2417V90H68.3C75.0417 90 79.825 87.05 79.825 79.775Z" fill="#0055FF"/>
<path id="Vector_2" d="M138.883 90.1333C130.717 90.1333 125.267 95.225 124.733 103.392H152.5C151.742 95.1333 147.458 90.1333 138.883 90.1333Z" fill="#0055FF"/>
<path id="Vector_3" d="M69.7333 104.242H49.2V127.858H69.3333C77.0166 127.858 83.2666 125.133 83.2666 116.517C83.2583 107.725 78.0333 104.283 69.7333 104.242Z" fill="#0055FF"/>
<path id="Vector_4" d="M164.583 2.5H35.4167C15.8333 2.5 0 18.3333 0 37.9167V162.083C0 181.667 15.8333 197.5 35.4167 197.5H164.583C184.167 197.5 200 181.667 200 162.083V37.9167C200 18.3333 184.167 2.5 164.583 2.5ZM121.292 59.8667H156.025V68.3H121.292V59.8667ZM71.9167 142.5H30.3583V56.7833H70.7583C85.45 56.7833 98.1667 60.9333 98.1667 77.9833C98.1667 86.6 94.15 90.8417 86.4667 94.5C97 97.4917 102.092 106.783 102.092 117.542C102.1 134.958 87.5 142.408 71.9167 142.5ZM169.508 114.15H124.775C124.775 124.058 130 129.908 140 129.908C145.175 129.908 151.833 127.142 153.483 121.825H168.525C163.883 136.067 154.283 142.717 139.467 142.717C119.917 142.717 107.725 129.458 107.725 110.125C107.725 91.4667 120.542 77.275 139.467 77.275C158.883 77.275 169.642 92.5833 169.642 110.933C169.642 112.008 169.55 113.125 169.508 114.15Z" fill="#0055FF"/>
</g>
</g>
<defs>
<clipPath id="clip0_210_8501">
<rect width="200" height="200" fill="white"/>
</clipPath>
</defs>
</svg>
