<svg width="200" height="200" viewBox="0 0 200 200" fill="none" xmlns="http://www.w3.org/2000/svg">
<g id="free-icon-font-intel-6424310" clip-path="url(#clip0_210_8516)">
<g id="Group">
<path id="Vector" d="M14.475 62.2832H0V76.7582H14.475V62.2832Z" fill="#04C7FD"/>
<g id="Group_2">
<path id="Vector_2" d="M14.1168 137.717V85.5749H0.408447V137.717H14.1168ZM105.2 138.225V125.45C103.192 125.45 101.492 125.35 100.25 125.142C98.8084 124.933 97.7251 124.417 97.0084 123.7C96.2834 122.975 95.8251 121.95 95.5668 120.608C95.3585 119.317 95.2585 117.617 95.2585 115.558V97.3166H105.2V85.5666H95.2585V65.2249H81.5085V115.667C81.5085 119.942 81.8668 123.55 82.5918 126.433C83.3168 129.267 84.5501 131.583 86.2501 133.333C87.9501 135.083 90.2168 136.325 92.9501 137.092C95.7335 137.867 99.2335 138.225 103.408 138.225H105.2ZM183.925 137.717V61.2083H170.167V137.717H183.925ZM68.2668 90.6749C64.4585 86.5499 59.1001 84.4916 52.2918 84.4916C48.9918 84.4916 46.0084 85.1583 43.2751 86.4999C40.6001 87.8416 38.2751 89.6916 36.4751 92.0666L35.7001 93.0416V92.1666V85.5749H22.1501V137.717H35.8001V109.95V111.858C35.8001 111.55 35.8001 111.242 35.8001 110.933C35.9585 106.042 37.1418 102.433 39.4085 100.117C41.8335 97.6416 44.7668 96.4083 48.1168 96.4083C52.0835 96.4083 55.1251 97.6416 57.1334 100.017C59.0918 102.383 60.1251 105.733 60.1251 110.008V110.108V137.675H73.9835V108.1C74.0335 100.667 72.0751 94.7999 68.2668 90.6749ZM163.058 111.542C163.058 107.783 162.392 104.275 161.1 100.983C159.758 97.7416 157.908 94.8499 155.583 92.3833C153.217 89.9083 150.383 87.9999 147.083 86.6166C143.783 85.2249 140.125 84.5583 136.158 84.5583C132.4 84.5583 128.842 85.2833 125.542 86.6666C122.242 88.1083 119.358 90.0166 116.942 92.4333C114.517 94.8583 112.558 97.7416 111.175 101.033C109.733 104.333 109.067 107.883 109.067 111.65C109.067 115.408 109.733 118.967 111.075 122.267C112.417 125.567 114.317 128.45 116.692 130.867C119.058 133.292 122 135.25 125.4 136.633C128.8 138.075 132.558 138.8 136.583 138.8C148.225 138.8 155.442 133.492 159.767 128.55L149.875 121.025C147.817 123.5 142.867 126.85 136.683 126.85C132.817 126.85 129.625 125.975 127.2 124.175C124.775 122.425 123.133 119.95 122.25 116.908L122.092 116.442H163.05L163.058 111.542ZM122.208 106.75C122.208 102.942 126.592 96.2916 136.017 96.2416C145.442 96.2416 149.875 102.892 149.875 106.7L122.208 106.75Z" fill="#0068B5"/>
<path id="Vector_3" d="M199.592 130.908C199.333 130.292 198.975 129.775 198.508 129.308C198.042 128.842 197.533 128.483 196.908 128.225C196.292 127.967 195.617 127.817 194.95 127.817C194.225 127.817 193.608 127.975 192.992 128.225C192.375 128.483 191.858 128.842 191.392 129.308C190.925 129.775 190.567 130.283 190.308 130.908C190.05 131.525 189.9 132.2 189.9 132.867C189.9 133.592 190.058 134.208 190.308 134.825C190.558 135.442 190.925 135.958 191.392 136.425C191.858 136.892 192.367 137.25 192.992 137.508C193.608 137.767 194.283 137.917 194.95 137.917C195.675 137.917 196.292 137.758 196.908 137.508C197.525 137.25 198.042 136.892 198.508 136.425C198.975 135.958 199.333 135.45 199.592 134.825C199.842 134.208 200 133.542 200 132.867C200 132.2 199.842 131.533 199.592 130.908ZM198.767 134.517C198.558 135.033 198.25 135.492 197.892 135.858C197.533 136.217 197.067 136.525 196.55 136.733C196.033 136.942 195.517 137.042 194.9 137.042C194.333 137.042 193.767 136.942 193.25 136.733C192.733 136.525 192.275 136.217 191.908 135.858C191.542 135.5 191.242 135.033 191.033 134.517C190.825 134 190.725 133.483 190.725 132.867C190.725 132.3 190.825 131.733 191.033 131.217C191.242 130.7 191.55 130.242 191.908 129.875C192.267 129.517 192.733 129.208 193.25 129C193.767 128.792 194.283 128.692 194.9 128.692C195.467 128.692 196.033 128.792 196.55 129C197.067 129.208 197.525 129.517 197.892 129.875C198.25 130.233 198.558 130.7 198.767 131.217C198.975 131.733 199.075 132.25 199.075 132.867C199.125 133.492 198.967 134 198.767 134.517ZM195.875 133.283C196.283 133.233 196.6 133.075 196.85 132.817C197.108 132.558 197.258 132.2 197.258 131.683C197.258 131.117 197.1 130.708 196.742 130.392C196.433 130.083 195.867 129.925 195.2 129.925H192.933V135.75H194.017V133.383H194.792L196.233 135.75H197.367L195.875 133.283ZM195.308 132.458C195.15 132.458 195 132.458 194.792 132.458H194.017V130.808H194.792C194.95 130.808 195.1 130.808 195.308 130.808C195.467 130.808 195.617 130.858 195.775 130.908C195.933 130.958 196.033 131.067 196.083 131.167C196.133 131.267 196.183 131.425 196.183 131.633C196.183 131.842 196.133 131.992 196.083 132.1C195.983 132.2 195.875 132.308 195.775 132.358C195.617 132.408 195.467 132.458 195.308 132.458Z" fill="#0068B5"/>
</g>
</g>
</g>
<defs>
<clipPath id="clip0_210_8516">
<rect width="200" height="200" fill="white"/>
</clipPath>
</defs>
</svg>
