<svg width="200" height="200" viewBox="0 0 200 200" fill="none" xmlns="http://www.w3.org/2000/svg">
<g id="free-icon-font-spotify-6424102" clip-path="url(#clip0_210_8531)">
<g id="Group">
<g id="Group_2">
<g id="Group_3">
<path id="Vector" d="M100 0C44.775 0 0 44.775 0 100C0 155.233 44.775 200 100 200C155.233 200 200 155.233 200 100C200 44.775 155.233 0 100 0ZM145.858 144.233C144.058 147.183 140.225 148.1 137.292 146.308C113.808 131.958 84.25 128.717 49.4417 136.667C46.0833 137.433 42.7417 135.333 41.975 131.983C41.2083 128.633 43.3 125.283 46.6667 124.525C84.7583 115.817 117.433 119.567 143.792 135.675C146.733 137.458 147.658 141.3 145.858 144.233ZM158.1 117.008C155.842 120.675 151.042 121.825 147.375 119.575C120.5 103.058 79.525 98.2667 47.725 107.925C43.6083 109.167 39.25 106.842 38 102.725C36.7583 98.6 39.0833 94.2583 43.2 93C79.5167 81.975 124.667 87.3167 155.533 106.283C159.2 108.542 160.35 113.342 158.1 117.008ZM159.15 88.65C126.917 69.5083 73.75 67.75 42.975 77.0917C38.0333 78.5917 32.8083 75.8 31.3083 70.8583C29.8083 65.9167 32.6 60.6917 37.5417 59.1917C72.8667 48.4667 131.583 50.5417 168.692 72.5667C173.133 75.2083 174.592 80.9417 171.958 85.3833C169.333 89.825 163.583 91.2917 159.15 88.65Z" fill="#00DA5A"/>
</g>
</g>
</g>
</g>
<defs>
<clipPath id="clip0_210_8531">
<rect width="200" height="200" fill="white"/>
</clipPath>
</defs>
</svg>
